HIERARCHY
ROOT root
{
  OFFSET 0 95.9893 0
  CHANNELS 6 Xposition Yposition Zposition Zrotation Xrotation Yrotation
  JOINT torso_1
  {
    OFFSET 0 5.22546 -1.18466
    CHANNELS 6 Xposition Yposition Zposition Zrotation Xrotation Yrotation
    JOINT torso_2
    {
      OFFSET 0 5.77894 1.10239
      CHANNELS 6 Xposition Yposition Zposition Zrotation Xrotation Yrotation
      JOINT torso_3
      {
        OFFSET -1.0557e-17 6.16289 0.118334
        CHANNELS 6 Xposition Yposition Zposition Zrotation Xrotation Yrotation
        JOINT torso_4
        {
          OFFSET -1.13649e-17 6.69386 -0.456341
          CHANNELS 6 Xposition Yposition Zposition Zrotation Xrotation Yrotation
          JOINT torso_5
          {
            OFFSET -2.02997e-17 7.82529 -1.54945
            CHANNELS 6 Xposition Yposition Zposition Zrotation Xrotation Yrotation
            JOINT torso_6
            {
              OFFSET -2.60628e-17 9.77186 -0.940923
              CHANNELS 6 Xposition Yposition Zposition Zrotation Xrotation Yrotation
              JOINT torso_7
              {
                OFFSET -2.98794e-17 10.8563 1.62248
                CHANNELS 6 Xposition Yposition Zposition Zrotation Xrotation Yrotation
                JOINT neck_1
                {
                  OFFSET -1.32927e-17 4.92478 0.736013
                  CHANNELS 6 Xposition Yposition Zposition Zrotation Xrotation Yrotation
                  JOINT neck_2
                  {
                    OFFSET -1.86396e-17 4.96043 0.433981
                    CHANNELS 6 Xposition Yposition Zposition Zrotation Xrotation Yrotation
                    JOINT head
                    {
                      OFFSET -2.06766e-17 4.97002 0.787173
                      CHANNELS 6 Xposition Yposition Zposition Zrotation Xrotation Yrotation
                      End Site
                      {
                        OFFSET 0 0.1 0
                      }
                    }
                  }
                }
                JOINT l_shoulder
                {
                  OFFSET 1.26863 -7.82717 7.75148
                  CHANNELS 6 Xposition Yposition Zposition Zrotation Xrotation Yrotation
                  JOINT l_up_arm
                  {
                    OFFSET 13.3291 3.34342 -3.36319
                    CHANNELS 6 Xposition Yposition Zposition Zrotation Xrotation Yrotation
                    JOINT l_low_arm
                    {
                      OFFSET 30.0522 0.0615366 0.141
                      CHANNELS 6 Xposition Yposition Zposition Zrotation Xrotation Yrotation
                      JOINT l_hand
                      {
                        OFFSET 24.9344 0.0510561 0.116988
                        CHANNELS 6 Xposition Yposition Zposition Zrotation Xrotation Yrotation
                        End Site
                        {
                          OFFSET 0.1 0 0
                        }
                      }
                    }
                  }
                }
                JOINT r_shoulder
                {
                  OFFSET -1.26863 -7.82715 7.75138
                  CHANNELS 6 Xposition Yposition Zposition Zrotation Xrotation Yrotation
                  JOINT r_up_arm
                  {
                    OFFSET -13.3291 3.34342 -3.36319
                    CHANNELS 6 Xposition Yposition Zposition Zrotation Xrotation Yrotation
                    JOINT r_low_arm
                    {
                      OFFSET -30.0522 0.0615366 0.141
                      CHANNELS 6 Xposition Yposition Zposition Zrotation Xrotation Yrotation
                      JOINT r_hand
                      {
                        OFFSET -24.9344 0.0510559 0.116988
                        CHANNELS 6 Xposition Yposition Zposition Zrotation Xrotation Yrotation
                        End Site
                        {
                          OFFSET -0.1 0 0
                        }
                      }
                    }
                  }
                }
              }
            }
          }
        }
      }
    }
  }
  JOINT l_up_leg
  {
    OFFSET 9.50369 -4.32711 2.09145
    CHANNELS 6 Xposition Yposition Zposition Zrotation Xrotation Yrotation
    JOINT l_low_leg
    {
      OFFSET -0.876987 -39.8926 -0.674123
      CHANNELS 6 Xposition Yposition Zposition Zrotation Xrotation Yrotation
      JOINT l_foot
      {
        OFFSET -2.39345 -41.5694 -6.22357
        CHANNELS 6 Xposition Yposition Zposition Zrotation Xrotation Yrotation
        JOINT l_toes
        {
          OFFSET 0.801613 -10.1701 12.8571
          CHANNELS 6 Xposition Yposition Zposition Zrotation Xrotation Yrotation
          End Site
          {
            OFFSET 0 0 0.1
          }
        }
      }
    }
  }
  JOINT r_up_leg
  {
    OFFSET -9.50369 -4.32711 2.09145
    CHANNELS 6 Xposition Yposition Zposition Zrotation Xrotation Yrotation
    JOINT r_low_leg
    {
      OFFSET 0.876987 -39.8926 -0.674123
      CHANNELS 6 Xposition Yposition Zposition Zrotation Xrotation Yrotation
      JOINT r_foot
      {
        OFFSET 2.39345 -41.5694 -6.22357
        CHANNELS 6 Xposition Yposition Zposition Zrotation Xrotation Yrotation
        JOINT r_toes
        {
          OFFSET -0.801613 -10.1701 12.8571
          CHANNELS 6 Xposition Yposition Zposition Zrotation Xrotation Yrotation
          End Site
          {
            OFFSET 0 0 0.1
          }
        }
      }
    }
  }
}
MOTION
Frames: 5
Frame Time: 0.02
0 95.9893 0 -0 0 -0 0 5.22546 -1.18466 -0 0 -0 0 5.77894 1.10239 -0 0 -0 -1.0557e-17 6.16289 0.118334 -0 0 -0 -1.13649e-17 6.69386 -0.456341 -0 0 -0 -2.02997e-17 7.82529 -1.54945 -0 0 -0 -2.60628e-17 9.77186 -0.940923 -0 0 -0 -2.98794e-17 10.8563 1.62248 -0 0 -0 -1.32927e-17 4.92478 0.736013 -0 0 -0 -1.86396e-17 4.96043 0.433981 -0 0 -0 -2.06766e-17 4.97002 0.787173 -0 0 -0 1.26863 -7.82717 7.75148 -0 0 -0 13.3291 3.34342 -3.36319 -0 0 -0 30.0522 0.0615366 0.141 -0 0 -0 24.9344 0.0510561 0.116988 -0 0 -0 -1.26863 -7.82715 7.75138 -0 0 -0 -13.3291 3.34342 -3.36319 -0 0 -0 -30.0522 0.0615366 0.141 -0 0 -0 -24.9344 0.0510559 0.116988 -0 0 -0 9.50369 -4.32711 2.09145 -0 0 -0 -0.876987 -39.8926 -0.674123 -0 0 -0 -2.39345 -41.5694 -6.22357 -0 0 -0 0.801613 -10.1701 12.8571 -0 0 -0 -9.50369 -4.32711 2.09145 -0 0 -0 0.876987 -39.8926 -0.674123 -0 0 -0 2.39345 -41.5694 -6.22357 -0 0 -0 -0.801613 -10.1701 12.8571 -0 0 -0 
6.02701 96.0208 -39.5361 0.950416 -0.261294 39.7276 0 5.22546 -1.18466 -0.964775 -0.593765 0.414587 0 5.77894 1.10239 -1.02673 -0.0235328 0.33962 -1.0557e-17 6.16289 0.118334 -0.929261 0.48113 0.294484 -1.13649e-17 6.69386 -0.456341 -0.831254 1.27028 0.23902 -2.02997e-17 7.82529 -1.54945 -0.574066 1.19521 0.322463 -2.60628e-17 9.77186 -0.940923 -0.326779 0.983601 0.3087 -2.98794e-17 10.8563 1.62248 -0.017589 0.129965 -0.0403363 -1.32927e-17 4.92478 0.736013 -3.58424 -4.83012 -14.0568 -1.86396e-17 4.96043 0.433981 -1.70686 0.435839 -6.53555 -2.06766e-17 4.97002 0.787173 -4.66091 4.12874 -4.30086 1.26863 -7.82717 7.75148 -3.41329 6.92307 -6.57284 13.3291 3.34342 -3.36319 -78.5493 15.7746 -4.32329 30.0522 0.0615366 0.141 1.26824 -0.0612256 -6.12401 24.9344 0.0510561 0.116988 -0.362424 -19.2255 -2.59666 -1.26863 -7.82715 7.75138 1.25914 0.507218 3.93742 -13.3291 3.34342 -3.36319 73.4651 18.7736 5.52265 -30.0522 0.0615366 0.141 -11.4431 -15.6053 108.248 -24.9344 0.0510559 0.116988 4.1697 -64.9711 8.21751 9.50369 -4.32711 2.09145 3.66843 0.877655 -16.3493 -0.876987 -39.8926 -0.674123 -0.0741395 0.276695 -0.00465067 -2.39345 -41.5694 -6.22357 -0.185476 1.03674 15.1353 0.801613 -10.1701 12.8571 -1.54058e-15 -8.57259e-16 8.69683e-17 -9.50369 -4.32711 2.09145 -5.55362 -0.786889 17.4646 0.876987 -39.8926 -0.674123 0.069303 0.258642 0.00435866 2.39345 -41.5694 -6.22357 2.27332 0.533775 -15.5411 -0.801613 -10.1701 12.8571 1.39149e-15 -6.4605e-16 -1.2834e-14 
6.02861 96.0213 -39.531 0.9571 -0.282341 39.6982 0 5.22546 -1.18466 -0.94875 -0.596971 0.418373 0 5.77894 1.10239 -1.01392 -0.0251968 0.344293 -1.0557e-17 6.16289 0.118334 -0.920392 0.482317 0.298537 -1.13649e-17 6.69386 -0.456341 -0.826022 1.27619 0.242679 -2.02997e-17 7.82529 -1.54945 -0.572065 1.20397 0.325049 -2.60628e-17 9.77186 -0.940923 -0.328059 0.995259 0.310913 -2.98794e-17 10.8563 1.62248 -0.0176731 0.129772 -0.0403544 -1.32927e-17 4.92478 0.736013 -3.58566 -4.88277 -13.9905 -1.86396e-17 4.96043 0.433981 -1.7282 0.447258 -6.50587 -2.06766e-17 4.97002 0.787173 -4.6858 4.18887 -4.28525 1.26863 -7.82717 7.75148 -3.38938 6.9253 -6.58059 13.3291 3.34342 -3.36319 -78.4631 15.7037 -4.22539 30.0522 0.0615366 0.141 1.25603 -0.0599863 -6.06488 24.9344 0.0510561 0.116988 -0.40909 -19.3663 -2.59291 -1.26863 -7.82715 7.75138 1.28704 0.506635 3.95321 -13.3291 3.34342 -3.36319 73.3957 18.8129 5.52814 -30.0522 0.0615366 0.141 -11.4403 -15.6134 108.289 -24.9344 0.0510559 0.116988 4.16849 -65.0394 8.22733 9.50369 -4.32711 2.09145 3.68409 0.898421 -16.344 -0.876987 -39.8926 -0.674123 -0.0782373 0.291991 -0.00489731 -2.39345 -41.5694 -6.22357 -0.200848 1.02823 15.1379 0.801613 -10.1701 12.8571 -3.47873e-16 -8.07563e-16 2.48481e-17 -9.50369 -4.32711 2.09145 -5.54374 -0.777762 17.5304 0.876987 -39.8926 -0.674123 0.0727131 0.27137 0.00456506 2.39345 -41.5694 -6.22357 2.26638 0.543593 -15.5404 -0.801613 -10.1701 12.8571 -9.93923e-16 -5.46658e-16 -1.27222e-14 
6.032 96.0206 -39.5261 0.983384 -0.291632 39.6981 0 5.22546 -1.18466 -0.939521 -0.597711 0.422228 0 5.77894 1.10239 -1.0069 -0.025381 0.348277 -1.0557e-17 6.16289 0.118334 -0.915908 0.48386 0.301961 -1.13649e-17 6.69386 -0.456341 -0.823741 1.28125 0.245676 -2.02997e-17 7.82529 -1.54945 -0.571376 1.21044 0.327577 -2.60628e-17 9.77186 -0.940923 -0.328968 1.00353 0.313091 -2.98794e-17 10.8563 1.62248 -0.0177231 0.12953 -0.0403389 -1.32927e-17 4.92478 0.736013 -3.58769 -4.93488 -13.9348 -1.86396e-17 4.96043 0.433981 -1.74562 0.457848 -6.48117 -2.06766e-17 4.97002 0.787173 -4.71234 4.24554 -4.28169 1.26863 -7.82717 7.75148 -3.3554 6.92594 -6.58869 13.3291 3.34342 -3.36319 -78.3867 15.6982 -4.14157 30.0522 0.0615366 0.141 1.24644 -0.0590212 -6.01841 24.9344 0.0510561 0.116988 -0.475273 -19.5479 -2.59825 -1.26863 -7.82715 7.75138 1.30917 0.507795 3.97282 -13.3291 3.34342 -3.36319 73.3258 18.8551 5.5263 -30.0522 0.0615366 0.141 -11.4385 -15.6189 108.318 -24.9344 0.0510559 0.116988 4.14597 -65.0852 8.21982 9.50369 -4.32711 2.09145 3.67527 0.914638 -16.3557 -0.876987 -39.8926 -0.674123 -0.0836889 0.31234 -0.00522375 -2.39345 -41.5694 -6.22357 -0.222053 1.02763 15.1401 0.801613 -10.1701 12.8571 -7.45443e-16 -8.32411e-16 4.96962e-17 -9.50369 -4.32711 2.09145 -5.55828 -0.754478 17.5694 0.876987 -39.8926 -0.674123 0.0752287 0.28076 0.00471684 2.39345 -41.5694 -6.22357 2.24977 0.534835 -15.5402 -0.801613 -10.1701 12.8571 9.93923e-16 -6.33626e-16 -1.28092e-14 
6.03467 96.0208 -39.5191 1.01799 -0.320354 39.6865 0 5.22546 -1.18466 -0.930337 -0.594929 0.425722 0 5.77894 1.10239 -0.999687 -0.0231771 0.351916 -1.0557e-17 6.16289 0.118334 -0.910882 0.486637 0.305126 -1.13649e-17 6.69386 -0.456341 -0.82053 1.28563 0.248556 -2.02997e-17 7.82529 -1.54945 -0.569592 1.21524 0.329876 -2.60628e-17 9.77186 -0.940923 -0.328672 1.00978 0.314782 -2.98794e-17 10.8563 1.62248 -0.0177425 0.129328 -0.0403265 -1.32927e-17 4.92478 0.736013 -3.58319 -4.97064 -13.8751 -1.86396e-17 4.96043 0.433981 -1.76042 0.460465 -6.45491 -2.06766e-17 4.97002 0.787173 -4.73901 4.28837 -4.27574 1.26863 -7.82717 7.75148 -3.31329 6.92079 -6.58834 13.3291 3.34342 -3.36319 -78.3371 15.7439 -4.06191 30.0522 0.0615366 0.141 1.23956 -0.0583342 -5.9851 24.9344 0.0510561 0.116988 -0.542734 -19.7624 -2.60881 -1.26863 -7.82715 7.75138 1.31955 0.506878 3.98602 -13.3291 3.34342 -3.36319 73.2811 18.9048 5.52917 -30.0522 0.0615366 0.141 -11.4372 -15.6228 108.338 -24.9344 0.0510559 0.116988 4.10576 -65.0946 8.17607 9.50369 -4.32711 2.09145 3.67363 0.947458 -16.3574 -0.876987 -39.8926 -0.674123 -0.0921424 0.343896 -0.00572614 -2.39345 -41.5694 -6.22357 -0.243002 1.0257 15.1427 0.801613 -10.1701 12.8571 -3.47873e-16 -8.07563e-16 2.48481e-17 -9.50369 -4.32711 2.09145 -5.56521 -0.724994 17.6147 0.876987 -39.8926 -0.674123 0.0837853 0.3127 0.00523002 2.39345 -41.5694 -6.22357 2.23756 0.528094 -15.5402 -0.801613 -10.1701 12.8571 -9.93923e-16 -5.46658e-16 -1.27222e-14 
